REM DIRINDEX 1\2,1\4,1\5,1\6,1\7,1\3\8,1\3\9,1\3\10
REM DIRNAME folder01,folder02,folder03,folder04,folder05,folder06,folder07,folder08,folder09,folder10
TITLE ""
FILE "DB4500_5th_1A_20.mp3" MP3
  TRACK 01 AUDIO
    TITLE "0:"
    INDEX 01 00:00:00
  TRACK 02 AUDIO
    TITLE "8:cjc113_0780"
    INDEX 01 00:00:03
  TRACK 03 AUDIO
    TITLE "0:"
    INDEX 01 00:01:15
  TRACK 04 AUDIO
    TITLE "9:cjc113_0781"
    INDEX 01 00:01:36
  TRACK 05 AUDIO
    TITLE "0:"
    INDEX 01 00:02:55
  TRACK 06 AUDIO
    TITLE "10:cjc113_0782"
    INDEX 01 00:03:02
  TRACK 07 AUDIO
    TITLE "0:"
    INDEX 01 00:07:31
  TRACK 08 AUDIO
    TITLE "8:cjc113_0783"
    INDEX 01 00:07:74
  TRACK 09 AUDIO
    TITLE "0:"
    INDEX 01 00:09:20
  TRACK 10 AUDIO
    TITLE "9:cjc113_0784"
    INDEX 01 00:09:40
  TRACK 11 AUDIO
    TITLE "0:"
    INDEX 01 00:10:72
  TRACK 12 AUDIO
    TITLE "10:cjc113_0785"
    INDEX 01 00:11:21
  TRACK 13 AUDIO
    TITLE "0:"
    INDEX 01 00:14:37
  TRACK 14 AUDIO
    TITLE "8:cjc113_0786"
    INDEX 01 00:15:13
  TRACK 15 AUDIO
    TITLE "0:"
    INDEX 01 00:16:24
  TRACK 16 AUDIO
    TITLE "9:cjc113_0787"
    INDEX 01 00:16:48
  TRACK 17 AUDIO
    TITLE "0:"
    INDEX 01 00:17:69
  TRACK 18 AUDIO
    TITLE "10:cjc113_0788"
    INDEX 01 00:18:15
  TRACK 19 AUDIO
    TITLE "0:"
    INDEX 01 00:21:27
  TRACK 20 AUDIO
    TITLE "8:cjc113_0789"
    INDEX 01 00:21:72
  TRACK 21 AUDIO
    TITLE "0:"
    INDEX 01 00:23:18
  TRACK 22 AUDIO
    TITLE "9:cjc113_0790"
    INDEX 01 00:23:40
  TRACK 23 AUDIO
    TITLE "0:"
    INDEX 01 00:24:53
  TRACK 24 AUDIO
    TITLE "10:cjc113_0791"
    INDEX 01 00:25:01
  TRACK 25 AUDIO
    TITLE "0:"
    INDEX 01 00:27:55
  TRACK 26 AUDIO
    TITLE "8:cjc113_0792"
    INDEX 01 00:28:27
  TRACK 27 AUDIO
    TITLE "0:"
    INDEX 01 00:29:36
  TRACK 28 AUDIO
    TITLE "9:cjc113_0793"
    INDEX 01 00:29:54
  TRACK 29 AUDIO
    TITLE "0:"
    INDEX 01 00:30:73
  TRACK 30 AUDIO
    TITLE "10:cjc113_0794"
    INDEX 01 00:31:20
  TRACK 31 AUDIO
    TITLE "0:"
    INDEX 01 00:35:21
  TRACK 32 AUDIO
    TITLE "8:cjc113_0795"
    INDEX 01 00:35:66
  TRACK 33 AUDIO
    TITLE "0:"
    INDEX 01 00:37:08
  TRACK 34 AUDIO
    TITLE "9:cjc113_0796"
    INDEX 01 00:37:28
  TRACK 35 AUDIO
    TITLE "0:"
    INDEX 01 00:39:52
  TRACK 36 AUDIO
    TITLE "10:cjc113_0797"
    INDEX 01 00:39:74
  TRACK 37 AUDIO
    TITLE "0:"
    INDEX 01 00:42:74
  TRACK 38 AUDIO
    TITLE "8:cjc113_0798"
    INDEX 01 00:43:44
  TRACK 39 AUDIO
    TITLE "0:"
    INDEX 01 00:44:67
  TRACK 40 AUDIO
    TITLE "9:cjc113_0799"
    INDEX 01 00:45:16
  TRACK 41 AUDIO
    TITLE "0:"
    INDEX 01 00:47:54
  TRACK 42 AUDIO
    TITLE "10:cjc113_0800"
    INDEX 01 00:48:02
  TRACK 43 AUDIO
    TITLE "0:"
    INDEX 01 00:52:36
  TRACK 44 AUDIO
    TITLE "8:cjc113_0801"
    INDEX 01 00:53:08
  TRACK 45 AUDIO
    TITLE "0:"
    INDEX 01 00:54:15
  TRACK 46 AUDIO
    TITLE "9:cjc113_0802"
    INDEX 01 00:54:38
  TRACK 47 AUDIO
    TITLE "0:"
    INDEX 01 00:57:48
  TRACK 48 AUDIO
    TITLE "10:cjc113_0803"
    INDEX 01 00:57:70
  TRACK 49 AUDIO
    TITLE "0:"
    INDEX 01 01:01:52
  TRACK 50 AUDIO
    TITLE "8:cjc113_0804"
    INDEX 01 01:02:26
  TRACK 51 AUDIO
    TITLE "0:"
    INDEX 01 01:03:39
  TRACK 52 AUDIO
    TITLE "9:cjc113_0805"
    INDEX 01 01:03:71
  TRACK 53 AUDIO
    TITLE "0:"
    INDEX 01 01:06:63
  TRACK 54 AUDIO
    TITLE "10:cjc113_0806"
    INDEX 01 01:07:14
  TRACK 55 AUDIO
    TITLE "0:"
    INDEX 01 01:10:02
  TRACK 56 AUDIO
    TITLE "8:cjc113_0807"
    INDEX 01 01:10:57
  TRACK 57 AUDIO
    TITLE "0:"
    INDEX 01 01:12:05
  TRACK 58 AUDIO
    TITLE "9:cjc113_0808"
    INDEX 01 01:12:28
  TRACK 59 AUDIO
    TITLE "0:"
    INDEX 01 01:15:52
  TRACK 60 AUDIO
    TITLE "10:cjc113_0809"
    INDEX 01 01:15:74
  TRACK 61 AUDIO
    TITLE "0:"
    INDEX 01 01:18:72
  TRACK 62 AUDIO
    TITLE "8:cjc113_0810"
    INDEX 01 01:19:44
  TRACK 63 AUDIO
    TITLE "0:"
    INDEX 01 01:20:51
  TRACK 64 AUDIO
    TITLE "9:cjc113_0811"
    INDEX 01 01:20:73
  TRACK 65 AUDIO
    TITLE "0:"
    INDEX 01 01:24:10
  TRACK 66 AUDIO
    TITLE "10:cjc113_0812"
    INDEX 01 01:24:32
  TRACK 67 AUDIO
    TITLE "0:"
    INDEX 01 01:27:53
